<svg xmlns="http://www.w3.org/2000/svg" width="500" height="500" viewBox="0 0 132.292 132.292">
   <rect width="130.704" height="130.704" x=".794" y=".794" ry="24.696" fill="#fff"/>
   <g transform="matrix(.91561 0 0 .91502 5.582 5.621)" stroke-width="1.734" fill="none" stroke="#666">
      <ellipse ry="62.695" rx="62.706" cy="66.146" cx="66.146" stroke-linecap="square"/>
      <path d="M66.304 3.451v45.748m0-45.748s25.653 1.91 31.987 45.191M66.304 3.451s-25.652 1.91-31.986 45.191M66.304 128.84V83.094m0 45.748s25.653-1.91 31.987-45.192m-31.987 45.192s-25.652-1.91-31.986-45.192M16.94 27.405s49.603 27.625 98.422 0M16.884 105.073s49.603-27.625 98.422 0" stroke-linecap="round"/>
   </g>
   <g aria-label="WWW" style="line-height:1.25;-inkscape-font-specification:Itim" font-weight="400" font-size="38.469" font-family="Itim" letter-spacing="0" word-spacing="8.343" stroke-width=".265">
      <path d="M44.836 56.773q.23-.81.69-1.31.461-.54.998-.54 1.305 0 1.88.5.576.502.576 1.736 0 .347-.537 1.967-1.19 3.663-2.61 9.062-.345 1.234-.575 2.16-.192.925-.345 1.542-.921 3.972-1.612 5.977-.23.579-.806.926-.576.308-1.228.308-.653 0-1.305-.27-.614-.308-.883-.694-1.19-2.352-2.954-6.401-1.727-4.088-2.687-7.134-2.379 6.054-4.26 11.684-.115.347-.268.771-.115.386-.269.81-.268.579-.767.926-.5.308-1.113.308-.69 0-1.343-.27-.653-.308-.883-.694-.499-.848-1.074-2.622-.538-1.774-1.459-4.975l-.959-3.278q-.998-3.2-1.727-6.555-.73-3.355-.73-4.01 0-.81.807-1.273.806-.502 1.612-.502.46 0 .959.309.499.27.652.964 1.344 7.211 3.953 16.736.998-2.39 2.187-5.823 1.228-3.432 2.341-6.671l.384-1.157q.154-.579.768-.887.652-.347 1.304-.347.845 0 1.382.424.537.424.69.926.039.154 1.536 4.589 1.496 4.434 3.569 8.946.767-2.275 1.842-7.288l.575-2.545q1.036-4.088 1.689-6.325zM77.665 56.773q.23-.81.69-1.31.461-.54.998-.54 1.305 0 1.88.5.576.502.576 1.736 0 .347-.537 1.967-1.19 3.663-2.61 9.062-.345 1.234-.575 2.16-.192.925-.345 1.542-.921 3.972-1.612 5.977-.23.579-.806.926-.576.308-1.228.308-.653 0-1.305-.27-.614-.308-.883-.694-1.15-2.275-2.916-7.134-1.765-4.897-2.725-9.255-.882 4.165-1.919 7.481-.997 3.317-2.302 6.98-.154.463-.307.887-.154.386-.269.771-.268.579-.767.926-.5.308-1.113.308-.69 0-1.343-.27-.653-.308-.883-.694-.499-.848-1.074-2.622-.538-1.774-1.459-4.975l-.959-3.278q-.998-3.2-1.727-6.555-.729-3.355-.729-4.01 0-.81.806-1.273.806-.502 1.612-.502.46 0 .959.309.499.27.652.964 1.344 7.211 3.953 16.736.652-1.504 1.228-3.548.614-2.082 1.65-5.823 1.343-4.897 2.034-6.98.154-.578.768-.925.652-.347 1.304-.347.845 0 1.382.463.537.424.69.925l.308 1.196q1.19 4.511 2.379 8.445 1.19 3.933 2.418 6.594.767-2.275 1.842-7.288l.575-2.545q1.036-4.088 1.689-6.325zM110.494 56.773q.23-.81.69-1.31.461-.54.998-.54 1.305 0 1.88.5.576.502.576 1.736 0 .347-.537 1.967-1.19 3.663-2.61 9.062-.345 1.234-.575 2.16-.192.925-.345 1.542-.921 3.972-1.612 5.977-.23.579-.806.926-.576.308-1.228.308-.653 0-1.305-.27-.614-.308-.883-.694-.92-1.812-2.763-6.555-1.803-4.744-2.84-8.06-1.803 4.666-3.76 10.952-.768 2.506-1.075 3.393-.268.579-.767.926-.5.308-1.113.308-.69 0-1.343-.27-.653-.308-.883-.694-.499-.848-1.074-2.622-.538-1.774-1.459-4.975l-.959-3.278q-.998-3.2-1.727-6.555-.729-3.355-.729-4.01 0-.81.806-1.273.806-.502 1.612-.502.46 0 .959.309.499.27.652.964 1.344 7.211 3.953 16.736 1.075-2.66 3.147-9.37.268-.888.806-2.623l.96-2.892q.153-.579.767-.926.652-.347 1.304-.347.845 0 1.382.424.537.425.69.926.077.231 1.574 5.322 1.497 5.09 3.53 9.486.768-2.275 1.843-7.288l.575-2.545q1.036-4.088 1.689-6.325z"/>
   </g>
</svg>