<svg version="1" 
    xmlns="http://www.w3.org/2000/svg" width="933.333" height="933.333" viewBox="0 0 700 700">
    <path d="M322 43.1c-89.4 8.2-171.7 55.8-223.8 129.2-27.6 39-45.7 84.1-53.4 133.2-3 19.1-3.3 67.3-.5 86 9 60.6 34 115.8 72.3 159.5 48.8 55.7 112.9 91.7 183.5 102.9 101.4 16.2 201-17 272-90.7 14.8-15.3 22.8-25.2 34.7-43.2 28.6-42.8 45.5-91.1 50.3-143.3 1.7-18.2.6-54.4-2-71.7-6.9-44.9-23.4-87.7-48.1-124.7-12.5-18.8-20.4-28.6-36-44.7-52.2-53.7-119.8-85.9-194.7-92.5-13.9-1.3-40.4-1.2-54.3 0zm24 91.5v82.7l-12.7-.7c-34.3-1.9-66.7-6.7-102-15.3-10.3-2.4-15.3-4.1-15.3-5 0-2.2 8.6-25.4 13.4-35.9 20.8-46 50.8-80 86.3-97.8 9.8-4.9 23.9-10 29.1-10.5.9-.1 1.2 17 1.2 82.5zm22.5-79.2c50.6 17 90.9 63.7 114.5 133.1 2.6 7.6 3.4 11.2 2.6 11.6-2.1 1.2-26 6.8-39.6 9.3-27 4.9-54 7.6-77.1 7.6H355v-82.5c0-75.5.1-82.5 1.6-82.5.9 0 6.3 1.5 11.9 3.4zm-58-.5c-1.6 1-6.3 3.7-10.3 6-21.5 12.5-45.6 37.3-61.9 63.4-11.2 18.2-22.6 42.9-29.3 63.9-1.2 3.8-2.3 6.8-2.5 6.8-.2 0-9-2.9-19.7-6.4-22.2-7.4-39.2-14-56.5-22.1l-12.3-5.8 5.3-6.1c19.9-23.2 50.4-48.3 78.2-64.3 28.8-16.6 63-28.9 97-34.9 16-2.8 15.6-2.8 12-.5zm92 .7c30.5 5.3 66.3 18 93.1 33.1 29.4 16.5 58.6 40.2 80.2 65l6.3 7.2-9.3 4.7c-13.4 6.8-20.1 10.1-30.1 14.5-10.1 4.5-43.9 16.9-46 16.9-.8 0-1.9-1.9-2.6-4.3-2.9-9.6-11.7-32-17.1-43.2-19.4-40.1-46.4-71.3-78.1-90-5.1-3-8.4-5.5-7.3-5.5 1 0 6 .7 10.9 1.6zM121.7 172.4c18.4 9.1 44.4 19.2 69.8 27.2 6.6 2.1 12.1 3.9 12.3 4 .2.1-.6 3.5-1.7 7.6-2.9 10.5-6.7 28.4-9.1 42.7-2 11.6-2 12.5-.4 14.2.9 1.1 2.2 1.9 2.9 1.9 3.3 0 4.4-2.9 7-17.4 2.6-15.5 9.2-44.6 10.4-45.8.3-.4 3.8.2 7.6 1.3 29.4 8.2 77.9 15.8 111.8 17.5l13.7.7v20.9c0 12.5.4 21.7 1 22.9 1.3 2.4 6.5 2.6 7.4.3.3-.9.6-11.2.6-23V226h14.4c33 0 73.6-5.3 107.9-14.2 6.5-1.6 12-2.8 12.1-2.6 1.4 1.5 11.6 50.9 11.6 55.7 0 1 .9 2.6 2 3.6 2.9 2.6 7 .7 7-3.3 0-5.8-7.1-42.1-10.5-53.6-.8-2.7-1.5-5.1-1.5-5.2 0-.2 3.6-1.4 8-2.8 20.9-6.6 52.1-19.8 71.6-30.2l10.1-5.4 5.6 7.8c9.8 13.7 16.7 25.4 25.2 42.7 20 40.7 28.9 77.1 30.2 122.6 1.4 49.6-7.8 94-28.2 136.7-10.1 20.9-30.8 54.2-33.8 54.2-.5 0-4.7-2-9.2-4.4-19-10.2-46.3-21.8-68.2-29.1-6.2-2-11.3-4-11.3-4.4 0-.4.7-3 1.5-5.7 3.4-11.5 10.5-47.8 10.5-53.6 0-4-4.1-5.9-7-3.3-1.1 1-2 2.6-2 3.6 0 5.6-10.3 54.4-11.9 56.1-.3.3-7.8-1.1-16.6-3.3-32-7.8-62-11.8-94.7-12.6l-22.8-.6v-21.8c0-11.9-.3-22.4-.6-23.3-.9-2.3-6.1-2.1-7.4.3-.6 1.2-1 10.5-1 23.4v21.4l-14.3.7c-32.8 1.5-73.7 7.8-107.4 16.4l-11.2 2.8-2-7.5c-3.3-12.1-6.8-28.6-9.1-42.1-2-12.2-3.3-15-6.5-15-.7 0-2 .8-2.9 1.9-1.6 1.7-1.6 2.5-.1 11.2 2.6 15.8 4.5 24.8 8.1 39.3 1.9 7.7 3.1 14.2 2.7 14.6-.4.4-8.2 3.1-17.3 6-19.4 6.1-43.7 15.6-60.4 23.4-6.5 3.1-12.2 5.6-12.6 5.6-1.2 0-12.7-16.7-20.2-29.2-23-38.9-36.7-81.3-40.9-126.8-1.4-15.5-.6-52.6 1.5-66.7 3.3-22.4 8.8-44.2 16.1-64 4.8-12.8 18.8-41.4 26-52.8 4.8-7.5 16.5-24.5 17-24.5 0 0 4.2 2 9.2 4.4zM346 566.1v82.1l-3.2-.7c-11.4-2.4-30.6-10.9-42.3-18.8-28-18.8-50-45.8-68.1-83.2-6.2-12.9-16.4-38.6-16.4-41.4 0-1.1 28.4-8.1 47.2-11.5 25.3-4.7 55.8-8.1 74.6-8.5l8.2-.1v82.1zm67-79.6c26.1 3.1 71 12.1 72.6 14.6.3.5-.7 4.7-2.2 9.2-22.4 68-63.9 116.8-113.9 133.9-6 2.1-11.8 3.8-12.7 3.8-1.7 0-1.8-4.6-1.8-82.2v-82.1l22.3.6c12.2.3 28.3 1.3 35.7 2.2zm98.2 22.1c7.3 2.6 19.1 7.1 26.3 10.1 14.3 6 43.5 20.3 43.5 21.3 0 1.1-19.4 21.4-28.9 30.3-39.1 36.6-90.6 62.5-145.3 73.2-18 3.5-18.6 3.3-8.6-2.6 41.3-24.6 72.6-66.7 92.8-124.7 2.5-7.1 4.8-12.2 5.6-12.2.7 0 7.2 2.1 14.6 4.6zM210.5 516c13.7 39.9 32.9 72.4 57.5 97.1 13.2 13.3 27.2 23.9 39.9 30.3 2.9 1.5 5.1 2.9 4.9 3.1-.2.2-5.5-.5-11.8-1.6-58.4-9.8-111.4-35.8-154.5-75.8-8.5-7.9-27.5-28-27.5-29.1 0-2.1 43.4-19.8 68.5-28 8.8-2.8 16.5-5.3 17-5.5 2.2-.7 2.9.4 6 9.5z"/>
    <path d="M103.9 292.3c-2.7 1.4-4.8 3.4-5.3 5-1.9 5.2 3.9 30.1 17.9 77.5 9.6 32.7 12 39 15.9 41.5 4.2 2.8 11.5 3.2 15.2.9 2.7-1.7 3.8-3.9 8.3-16.8 9.6-27.7 20.5-56.4 21.1-55.7.4.5 2.8 6.6 5.5 13.8 2.6 7.1 7.3 18.8 10.5 26 14.7 33 14.8 33.1 23.8 34.1 5.9.7 10.7-2 12.9-7.3.8-2 5-17.7 9.3-34.7 7.8-30.6 10.3-39.6 17.3-62.7 3.9-12.7 3.8-17.7-.3-21.1-2.4-1.9-9.1-3.2-11.9-2.3-5.3 1.6-8.7 12.1-19.5 58-3.1 13.2-6.4 26.8-7.4 30.3l-1.8 6.3-5.2-12.3c-6.2-14.6-11.2-28.2-17.7-47.6-5.3-16-7.1-18.2-15-18.2-7 0-9.7 2.6-13.3 12.6-1.7 4.9-6.7 19.1-11.1 31.5-4.4 12.5-9.1 25.1-10.4 28l-2.3 5.3-7.6-31c-4.3-17-8.9-36.8-10.3-43.9-2.9-14-4.2-17.1-8.1-18.5-3.8-1.5-5.6-1.2-10.5 1.3zM278 292.2c-2.9 1.5-4.8 3.3-5.4 5.1-1.9 5.5 3 27.5 16 72.2 13.4 45.7 14.7 48.2 25.4 49.3 4.6.4 5.2.2 8.3-2.9 2.9-2.9 4.6-6.9 11.6-28.2 4.5-13.6 10.1-32.4 12.5-41.7l4.3-16.9 2.8 10.7c3.6 14.1 10.4 34.4 17.2 51.7 9.6 24.2 11.2 26.4 20.1 27.2 3.8.4 5.4 0 8.1-1.9 4.2-2.8 5.4-6.2 12.2-33.8 6-24.6 12.4-48.1 17.9-65.6 4.2-13.4 4.8-18.1 2.8-21.7-1.7-3.2-3.8-4.5-8.6-5.3-5.4-.8-8.7 1.2-11.2 6.9-2.3 5.1-9.3 31.9-14.9 56.2-2.3 9.9-5 20.9-6 24.5l-1.9 6.5-2.5-5.5c-3.6-8-12-34.4-18.4-58-3.1-11.3-6.2-21.7-6.9-23.1-1.4-2.7-6.8-5.9-10.1-5.9-1 0-3.7.9-5.9 1.9-3.9 1.8-4.3 2.4-6.8 9.7-1.4 4.4-5.9 20-10.1 34.9-7.7 27.5-13.4 45.9-14 45.3-1.3-1.2-14.8-56.3-18.5-75.3-2.8-14.7-2.7-14.4-6.3-16.6-4.1-2.5-6.3-2.4-11.7.3zM452.5 291.9c-8.2 3.7-8.4 6.1-3 30.1 4.5 20.1 22 79.9 25.4 87 3.5 7.2 6.7 9.5 13.7 9.5 8.2 0 9.1-1.4 16.9-26 3.7-11.6 9.5-28.7 12.8-38.2l6.1-17.2 6.2 17.7c11.9 34.6 21.8 57.8 25.9 61 5.4 4.3 15.8 3.7 19-1.1 1.6-2.5 6.7-20.5 11.5-40.7 2.9-12 12-44.6 18.1-64.8 3.5-11.5.9-17.3-8.7-18.8-3.4-.5-4.5-.2-7.2 2.1-4.4 3.7-6.1 9.7-21.2 72.8-2.4 9.7-4.6 18-5 18.2-1.4.9-12.9-30.1-19.9-53.4-3.8-12.5-7.4-23.8-8-25-1.5-2.8-6.2-5.1-10.3-5.1-3.7 0-9.2 2.9-10.6 5.7-.6 1-4.4 12.8-8.6 26.3-10.4 33.5-16.7 51.3-17.7 50.3-1.2-1.2-12.3-45.6-16.4-66.2-4.3-21-4.9-22.8-8.6-24.6-3.6-1.9-5.5-1.9-10.4.4z"/>
</svg>